<?xml version="1.0" encoding="iso-8859-1"?>
<!-- Generator: Adobe Illustrator 25.2.3, SVG Export Plug-In . SVG Version: 6.00 Build 0)  -->
<svg version="1.1" id="&#x30EC;&#x30A4;&#x30E4;&#x30FC;_1"
	 xmlns="http://www.w3.org/2000/svg" xmlns:xlink="http://www.w3.org/1999/xlink" x="0px" y="0px" viewBox="0 0 1834 218"
	 style="enable-background:new 0 0 1834 218;" xml:space="preserve" preserveAspectRatio="none" width="1834" height="218">
<path id="LIVE_VIDEO" style="fill-rule:evenodd;clip-rule:evenodd;fill:#FF3900;" d="M1395.7,213.8h182.31v-48.031
	c-16.4,13.619-53.3,29.141-73.22,29.141c-2.63-23.43-2.93-70.435-2.93-108.362c25.19,1.464,43.2,7.761,49.79,15.669V50.672
	c-6.59,7.761-24.31,13.765-49.49,15.522c0.58-17.279,1.46-32.948,2.63-43.491c28.41,0,53.45,7.175,73.22,29.14V3.813H1395.7
	c0.361,0.512,0.808,0.957,1.32,1.318c2.63,1.9,5.86,5.565,7.32,17.719c2.2,18.6,3.22,53.156,3.22,85.957
	c0,33.68-1.02,67.506-3.22,86.1c-1.46,12.3-5.27,15.522-7.47,17.718L1395.7,213.8z"/>
</svg>
