<?xml version="1.0" encoding="iso-8859-1"?>
<!-- Generator: Adobe Illustrator 25.2.3, SVG Export Plug-In . SVG Version: 6.00 Build 0)  -->
<svg version="1.1" id="&#x30EC;&#x30A4;&#x30E4;&#x30FC;_1"
	 xmlns="http://www.w3.org/2000/svg" xmlns:xlink="http://www.w3.org/1999/xlink" x="0px" y="0px" viewBox="0 0 1834 218"
	 style="enable-background:new 0 0 1834 218;" xml:space="preserve" preserveAspectRatio="none" width="1834" height="218">
<path id="LIVE_VIDEO" style="fill-rule:evenodd;clip-rule:evenodd;fill:#FF3900;" d="M1150.42,213.8h118.18
	c88.15,0,127.1-44.37,127.1-103.822c0-74.828-59.3-106.165-129.15-106.165h-116.13c2.05,2.489,6.89,4.247,8.64,18.89
	c4.25,37.194,4.4,135.012,0,172.207C1157.31,209.553,1152.47,211.457,1150.42,213.8L1150.42,213.8z M1259.96,194.91
	c-4.1-37.195-4.25-135.159-0.15-172.354c17.13,2.489,32.51,13.618,32.51,86.543C1292.32,181.877,1276.94,192.567,1259.96,194.91z"/>
</svg>
