<?xml version="1.0" encoding="utf-8"?>
<!-- Generator: Adobe Illustrator 25.2.3, SVG Export Plug-In . SVG Version: 6.00 Build 0)  -->
<svg version="1.1" id="レイヤー_1" xmlns="http://www.w3.org/2000/svg" xmlns:xlink="http://www.w3.org/1999/xlink" x="0px"
	 y="0px" viewBox="0 0 926.1 171.2" style="enable-background:new 0 0 926.1 171.2;" xml:space="preserve">
<style type="text/css">
	.st0{fill-rule:evenodd;clip-rule:evenodd;fill:#FF3900;}
</style>
<g transform="scale(1.3, 1)">
<path id="BLURAY" class="st0" d="M481.5,82.8h49.2c-1-0.9-2.9-1.7-3.6-7.6c-0.5-3.7-0.7-7.5-0.7-11.2c0-6.7,10-26.9,17.2-43
	c4.6-10,10.3-20,11.2-20.9h-46c0.9,1,6.5,12.5,10.3,23c3.9,10.5,5.3,14.5,5.4,19.1c0.2,4.2-1.7,9.3-2.5,11
	c-5-16.3-16.6-42.6-20.9-53.1h-44c0.9,1,6.6,10.9,11.2,20.9c7.2,16,17.2,36.3,17.2,43c0,3.8-0.3,7.5-0.8,11.2
	C484.4,81.1,482.4,81.9,481.5,82.8L481.5,82.8z"/>
</g>
</svg>
