<?xml version="1.0" encoding="utf-8"?>
<!-- Generator: Adobe Illustrator 25.2.3, SVG Export Plug-In . SVG Version: 6.00 Build 0)  -->
<svg version="1.1" id="レイヤー_1" xmlns="http://www.w3.org/2000/svg" xmlns:xlink="http://www.w3.org/1999/xlink" x="0px"
	 y="0px" viewBox="0 0 926.1 171.2" style="enable-background:new 0 0 926.1 171.2;" xml:space="preserve">
<style type="text/css">
	.st0{fill-rule:evenodd;clip-rule:evenodd;fill:#FF3900;}
</style>
<g transform="scale(1.3, 1)">
<path id="BLURAY" class="st0" d="M369.5,82.8h52c8.6,0,14.4-6.4,12.9-14.5l6.2,14.5h40.1c-9.6-9.3-31.6-70.2-34.6-82.7h-42.1
	C401.1,12.6,379.1,73.5,369.5,82.8L369.5,82.8z M424.1,74.3c-5.4,0-10.9-6.9-15.5-25c-2.4-9.5-3.7-17.7-3.7-23.5
	c0-4.9,0.9-9.6,4.8-9.6c5.4,0,8.7,10.7,13.5,27.2c2.9,9.8,4.5,18.1,4.5,23.6C427.8,71.6,426.7,74.3,424.1,74.3L424.1,74.3z"/>
</g>
</svg>
