<?xml version="1.0" encoding="utf-8"?>
<!-- Generator: Adobe Illustrator 25.2.3, SVG Export Plug-In . SVG Version: 6.00 Build 0)  -->
<svg version="1.1" id="レイヤー_1" xmlns="http://www.w3.org/2000/svg" xmlns:xlink="http://www.w3.org/1999/xlink" x="0px"
	 y="0px" viewBox="0 0 441 1604.3" style="enable-background:new 0 0 441 1604.3;" xml:space="preserve">
<style type="text/css">
	.st0{fill-rule:evenodd;clip-rule:evenodd;fill:#FF3900;}
</style>
<path id="_" class="st0" d="M4.8,889L29,853.7C42.7,865,61,870.5,82.3,870.5v-4.8c-20.4,0-37.7-5.3-50.6-15.8l59-86.4
	c12.5-18.2,24-36.2,44.9-36.2c22.1,0,37.4,19.9,37.4,52.1c0,34.1-16.6,52.8-39.6,62.6l2.2,4.1c23.8-9.6,42-30.5,42-66.7
	c0-34.8-17.3-57.1-42-57.1c-15.4,0-26.2,8.6-35.5,20.2c-6.7-25-21.6-41.3-46.6-41.3C23,701.1,0,731.3,0,778.6
	c0,32.9,9.4,56.9,25.4,72L4.8,880.8V889L4.8,889z M4.6,778.6c0-44.6,21.1-72.5,49-72.5c20.9,0,36,12.5,43.2,40.6
	c-3.8,5-7.4,10.3-11,15.6l-57.6,84.5C13.2,832.3,4.6,809.8,4.6,778.6z"/>
</svg>
