<?xml version="1.0" encoding="utf-8"?>
<!-- Generator: Adobe Illustrator 25.2.3, SVG Export Plug-In . SVG Version: 6.00 Build 0)  -->
<svg version="1.1" id="レイヤー_1" xmlns="http://www.w3.org/2000/svg" xmlns:xlink="http://www.w3.org/1999/xlink" x="0px"
	 y="0px" viewBox="0 0 441 1604.3" style="enable-background:new 0 0 441 1604.3;" xml:space="preserve">
<style type="text/css">
	.st0{fill-rule:evenodd;clip-rule:evenodd;fill:#FF3900;}
</style>
<path id="BLURAY" class="st0" d="M230.8,927.5v131.9c0,21.8,16.3,36.5,36.8,32.8l-36.8,15.8V1210c23.7-24.3,178.2-80.1,210-87.9
	v-106.8C409,1007.6,254.5,951.8,230.8,927.5z M252.3,1066.1c0-13.8,17.4-27.7,63.4-39.2c24-6,44.8-9.4,59.7-9.4
	c12.4,0,24.5,2.2,24.5,12.3c0,13.6-27.2,22-69,34.3c-24.9,7.3-45.8,11.4-59.9,11.4C259.2,1075.4,252.3,1072.5,252.3,1066.1z"/>
</svg>
