<?xml version="1.0" encoding="utf-8"?>
<!-- Generator: Adobe Illustrator 25.2.3, SVG Export Plug-In . SVG Version: 6.00 Build 0)  -->
<svg version="1.1" id="レイヤー_1" xmlns="http://www.w3.org/2000/svg" xmlns:xlink="http://www.w3.org/1999/xlink" x="0px"
	 y="0px" viewBox="0 0 926.1 171.2" style="enable-background:new 0 0 926.1 171.2;" xml:space="preserve">
<style type="text/css">
	.st0{fill-rule:evenodd;clip-rule:evenodd;fill:#FF3900;}
</style>
<g transform="scale(1.3, 1)">
<path id="BLURAY" class="st0" d="M0,82.8h31.8c26.4,0,59.5,2.4,59.5-29.2C91.3,40,81,30.2,67,28.6c6.5-0.8,15.9-4,15.9-14.5
	c0-15.8-29.1-14-50.6-14H0c0.8,1,2.8,1.7,3.4,7.4c1.6,14.7,1.7,53.2,0,67.8C2.7,81.1,0.8,81.9,0,82.8z M41.9,26.5
	c0.1-5.7-0.1-13.6-0.1-19.2c5,0,8.7,1.3,8.7,9.4C50.6,22.7,48.3,26.5,41.9,26.5z M43.1,75.8c-1.6-6.5-1.2-18-1.3-25.7l0.1-16.5
	c10.8,0.1,11.5,6.3,11.5,19.8C53.4,66.2,52.4,74.5,43.1,75.8z"/>
</g>
</svg>
