<?xml version="1.0" encoding="utf-8"?>
<!-- Generator: Adobe Illustrator 25.2.3, SVG Export Plug-In . SVG Version: 6.00 Build 0)  -->
<svg version="1.1" id="レイヤー_1" xmlns="http://www.w3.org/2000/svg" xmlns:xlink="http://www.w3.org/1999/xlink" x="0px"
	 y="0px" viewBox="0 0 441 1604.3" style="enable-background:new 0 0 441 1604.3;" xml:space="preserve">
<style type="text/css">
	.st0{fill-rule:evenodd;clip-rule:evenodd;fill:#FF3900;}
</style>
<path id="BLURAY" class="st0" d="M224.5,518.7c0,57.8,20.9,114.2,89.9,114.2h50.4c23.1,0.3,43.5,1.2,56.8,2.8
	c14.9,1.8,16.7,6.6,19.2,8.9V522.9c-2.5,2.3-4.2,7-19.2,8.6c-13.3,1.5-33.7,2.5-56.8,3.1h-61.1c-41.7,0-60-0.6-60.6-16
	c0.6-15.5,18.9-15.8,60.6-15.8h61.1c23.1,0.3,43.5,1,56.8,2.6c14.9,1.8,16.7,6.6,19.2,8.9V392.8c-2.5,2.3-4.2,7.2-19.2,8.9
	c-13.3,1.6-33.7,2.2-56.8,2.8h-50.4C245.4,404.5,224.5,460.6,224.5,518.7L224.5,518.7z"/>
</svg>
