<?xml version="1.0" encoding="utf-8"?>
<!-- Generator: Adobe Illustrator 25.2.3, SVG Export Plug-In . SVG Version: 6.00 Build 0)  -->
<svg version="1.1" id="レイヤー_1" xmlns="http://www.w3.org/2000/svg" xmlns:xlink="http://www.w3.org/1999/xlink" x="0px"
	 y="0px" viewBox="0 0 441 1604.3" style="enable-background:new 0 0 441 1604.3;" xml:space="preserve">
<style type="text/css">
	.st0{fill-rule:evenodd;clip-rule:evenodd;fill:#FF3900;}
</style>
<path id="BLURAY" class="st0" d="M230.8,1212v124.8c2.3-2.5,4.2-7.3,19.2-9.1c9.7-1.2,12.6-1.5,28.6-1.8c17,0,68.4,25.5,109.1,43.8
	c25.5,11.7,50.7,26.1,53.2,28.6v-116.7c-2.5,2.3-31.8,16.6-58.3,26.1c-26.7,10-36.9,13.5-48.5,13.8c-10.5,0.6-23.7-4.4-28-6.3
	c41.4-12.6,108.2-42.2,134.7-53v-111.6c-2.5,2.3-27.7,16.8-53.2,28.6c-40.7,18.2-92.1,43.8-109.1,43.8c-16-0.4-18.9-0.7-28.6-1.9
	C235,1219.5,233.1,1214.3,230.8,1212L230.8,1212z"/>
</svg>
