<?xml version="1.0" encoding="utf-8"?>
<!-- Generator: Adobe Illustrator 25.2.3, SVG Export Plug-In . SVG Version: 6.00 Build 0)  -->
<svg version="1.1" id="レイヤー_1" xmlns="http://www.w3.org/2000/svg" xmlns:xlink="http://www.w3.org/1999/xlink" x="0px"
	 y="0px" viewBox="0 0 441 1604.3" style="enable-background:new 0 0 441 1604.3;" xml:space="preserve">
<style type="text/css">
	.st0{fill-rule:evenodd;clip-rule:evenodd;fill:#FF3900;}
</style>
<path id="BLURAY" class="st0" d="M230.8,0v80.7c0,66.9-6,151.1,74.1,151.1c34.6,0,59.5-26.2,63.6-61.6c2,16.4,10.1,40.4,36.9,40.4
	c40.1,0,35.4-73.8,35.4-128.4V0c-2.5,2-4.2,7-18.9,8.6c-37.2,4.1-135,4.4-172.2,0C235,6.9,233.1,2.1,230.8,0z M373.9,106.5
	c14.4,0.3,34.4-0.1,48.6-0.1c0,12.6-3.4,22.1-23.9,22.1C383.4,128.4,373.9,122.6,373.9,106.5z M248.7,109.5
	c16.5-4.1,45.7-3.1,65.2-3.4l41.9,0.1c-0.1,27.4-16.1,29.3-50.2,29.3C273,135.6,251.9,133.1,248.7,109.5L248.7,109.5z"/>
</svg>
