<?xml version="1.0" encoding="utf-8"?>
<!-- Generator: Adobe Illustrator 25.2.3, SVG Export Plug-In . SVG Version: 6.00 Build 0)  -->
<svg version="1.1" id="レイヤー_1" xmlns="http://www.w3.org/2000/svg" xmlns:xlink="http://www.w3.org/1999/xlink" x="0px"
	 y="0px" viewBox="0 0 926.1 171.2" style="enable-background:new 0 0 926.1 171.2;" xml:space="preserve">
<style type="text/css">
	.st0{fill-rule:evenodd;clip-rule:evenodd;fill:#FF3900;}
</style>
<g transform="scale(1.3, 1)">
<path id="_" class="st0" d="M423.5,169.4l-13-9c4-5.1,6.2-11.8,6.2-19.5h-2.8c0,7.3-1.8,13.4-5.5,18l-30.5-21.1
	c-6.9-4.8-13.2-8.9-13.2-16.1c0-7.7,7-12.9,18.3-12.9c12.1,0,18.7,5.7,22.4,14.1l2.4-1.1c-3.5-8.7-11.2-15.6-24.7-15.6
	c-12.8,0-21.3,6.4-21.3,15.7c0,5.5,3,9.2,7,12.6c-8.9,2.6-14.6,8.4-14.6,17.1c0,11.3,11.4,19.8,28.9,19.8c11.7,0,20.3-3.2,26-8.8
	l10.1,7L423.5,169.4L423.5,169.4z M382.9,168.5c-15.6,0-26-7.1-26-17.2c0-7.1,4.3-12.6,14-15.2c1.6,1.2,3.4,2.5,5.2,3.7l30.5,21
	C401.3,165.8,393.4,168.5,382.9,168.5L382.9,168.5z"/>
</g>
</svg>
