<?xml version="1.0" encoding="utf-8"?>
<!-- Generator: Adobe Illustrator 25.2.3, SVG Export Plug-In . SVG Version: 6.00 Build 0)  -->
<svg version="1.1" id="レイヤー_1" xmlns="http://www.w3.org/2000/svg" xmlns:xlink="http://www.w3.org/1999/xlink" x="0px"
	 y="0px" viewBox="0 0 441 1604.3" style="enable-background:new 0 0 441 1604.3;" xml:space="preserve">
<style type="text/css">
	.st0{fill-rule:evenodd;clip-rule:evenodd;fill:#FF3900;}
</style>
<path id="BLURAY" class="st0" d="M230.8,692.6v118c2.3-2,5.7-5.3,17.9-8.5c16.5-4.1,66.2-3.1,85.7-3.4l-103.5,28v110.6
	c23-23.3,53.4-30.8,73.1-38.2c26.2-10,21.7-32.1,21.7-47.7c0-30.3,6.4-31.6,10.2-31.6c0,40.1,7.3,83.3,53.4,83.3
	c58.4,0,51.5-73.7,51.5-128.3v-82.2c-2.5,2-4.2,6.9-18.9,8.6c-19.5,2.2-55.5,3.4-90.8,3.2c-32.1-0.1-63.7-1-81.4-3.2
	C235,699.5,233.1,694.6,230.8,692.6z M353.7,799c7.2,0.1,15.8,0.1,24.5,0l44.4-0.1c0,12.6-12.7,22.1-33.2,22.1
	C374,821,353.7,815.1,353.7,799z"/>
</svg>
