<?xml version="1.0" encoding="iso-8859-1"?>
<!-- Generator: Adobe Illustrator 25.2.3, SVG Export Plug-In . SVG Version: 6.00 Build 0)  -->
<svg version="1.1" id="&#x30EC;&#x30A4;&#x30E4;&#x30FC;_1"
	 xmlns="http://www.w3.org/2000/svg" xmlns:xlink="http://www.w3.org/1999/xlink" x="0px" y="0px" viewBox="0 0 1328 218"
	 style="enable-background:new 0 0 1328 218;" xml:space="preserve" preserveAspectRatio="none" width="1328" height="218">
<path id="SETLIST" style="fill-rule:evenodd;clip-rule:evenodd;fill:#FF3900;" d="M217.87,213.8h182.311v-48.031
	c-16.4,13.619-53.3,29.141-73.217,29.141c-2.636-23.43-2.929-70.435-2.929-108.362c25.187,1.464,43.2,7.761,49.788,15.669V50.672
	c-6.59,7.761-24.308,13.765-49.495,15.522c0.586-17.279,1.464-32.948,2.636-43.491c28.408,0,53.448,7.175,73.217,29.14V3.813H217.87
	c0.362,0.51,0.808,0.956,1.318,1.318c2.636,1.9,5.857,5.565,7.322,17.719c2.2,18.6,3.221,53.156,3.221,85.957
	c0,33.68-1.025,67.506-3.221,86.1c-1.465,12.3-5.272,15.522-7.468,17.718L217.87,213.8z"/>
</svg>
