<?xml version="1.0" encoding="iso-8859-1"?>
<!-- Generator: Adobe Illustrator 25.2.3, SVG Export Plug-In . SVG Version: 6.00 Build 0)  -->
<svg version="1.1" id="&#x30EC;&#x30A4;&#x30E4;&#x30FC;_1"
	 xmlns="http://www.w3.org/2000/svg" xmlns:xlink="http://www.w3.org/1999/xlink" x="0px" y="0px" viewBox="0 0 1328 218"
	 style="enable-background:new 0 0 1328 218;" xml:space="preserve" preserveAspectRatio="none" width="1328" height="218">
<path id="SETLIST" style="fill-rule:evenodd;clip-rule:evenodd;fill:#FF3900;" d="M1043.53,217.753
	c53.59,0,85.37-27.676,85.37-71.752c0-96.061-134.429-89.325-134.282-113.341c0-8.054,10.252-12.154,24.752-12.154
	c28.4,0,73.65,15.815,91.37,48.616V0.3c-10.69,2.636-21.97,3.514-33.53,3.514c-23.14,0-47.45-3.514-69.41-3.514
	c-60.92,0-91.525,23.722-91.525,71.021c0,86.1,127.7,86.982,127.7,115.244c0,7.468-5.28,10.69-13.92,10.69
	c-26.5,0-84.049-31.484-110.992-69.7v89.91c12.007-3.075,24.893-4.1,38.072-4.1C984.514,213.36,1014.09,217.753,1043.53,217.753
	L1043.53,217.753z"/>
</svg>
