<?xml version="1.0" encoding="iso-8859-1"?>
<!-- Generator: Adobe Illustrator 25.2.3, SVG Export Plug-In . SVG Version: 6.00 Build 0)  -->
<svg version="1.1" id="&#x30EC;&#x30A4;&#x30E4;&#x30FC;_1"
	 xmlns="http://www.w3.org/2000/svg" xmlns:xlink="http://www.w3.org/1999/xlink" x="0px" y="0px" viewBox="0 0 1328 218"
	 style="enable-background:new 0 0 1328 218;" xml:space="preserve" preserveAspectRatio="none" width="1328" height="218">
<path id="SETLIST" style="fill-rule:evenodd;clip-rule:evenodd;fill:#FF3900;" d="M127.831,217.753
	c53.595,0,85.372-27.676,85.372-71.752C213.2,49.94,78.776,56.676,78.922,32.66c0-8.054,10.25-12.154,24.748-12.154
	c28.408,0,73.656,15.815,91.375,48.616V0.3c-10.69,2.636-21.965,3.514-33.534,3.514C138.375,3.813,114.067,0.3,92.1,0.3
	C31.185,0.3,0.58,24.021,0.58,71.319c0,86.1,127.691,86.982,127.691,115.244c0,7.468-5.272,10.69-13.912,10.69
	c-26.5,0-84.053-31.484-111-69.7v89.91c12.008-3.075,24.894-4.1,38.073-4.1C68.818,213.36,98.4,217.753,127.831,217.753z"/>
</svg>
