<?xml version="1.0" encoding="iso-8859-1"?>
<!-- Generator: Adobe Illustrator 25.2.3, SVG Export Plug-In . SVG Version: 6.00 Build 0)  -->
<svg version="1.1" id="&#x30EC;&#x30A4;&#x30E4;&#x30FC;_1"
	 xmlns="http://www.w3.org/2000/svg" xmlns:xlink="http://www.w3.org/1999/xlink" x="0px" y="0px" viewBox="0 0 3440 1100"
	 style="enable-background:new 0 0 3440 1100;" xml:space="preserve">
<path id="ANNIVERSARY" style="opacity:0.88;fill-rule:evenodd;clip-rule:evenodd;fill:#FFFFFF;enable-background:new    ;" d="
	M2082.93,1094.35h156.39c25.87,0,43.22-19.27,38.89-43.57l18.74,43.57h120.81c-28.81-28.12-94.95-211.248-104.14-248.914h-126.54
	C2177.88,883.1,2111.74,1066.23,2082.93,1094.35z M2247.13,1068.83c-16.31,0-32.8-20.65-46.51-75.158
	c-7.12-28.467-11.11-53.115-11.11-70.82c0-14.754,2.6-28.988,14.58-28.988c16.14,0,26.03,32.286,40.61,81.756
	c8.68,29.51,13.54,54.33,13.54,70.99C2258.24,1060.67,2254.77,1068.83,2247.13,1068.83z"/>
</svg>
