<?xml version="1.0" encoding="iso-8859-1"?>
<!-- Generator: Adobe Illustrator 25.2.3, SVG Export Plug-In . SVG Version: 6.00 Build 0)  -->
<svg version="1.1" id="&#x30EC;&#x30A4;&#x30E4;&#x30FC;_1"
	 xmlns="http://www.w3.org/2000/svg" xmlns:xlink="http://www.w3.org/1999/xlink" x="0px" y="0px" viewBox="0 0 3440 1100"
	 style="enable-background:new 0 0 3440 1100;" xml:space="preserve">
<path id="ANNIVERSARY" style="opacity:0.88;fill-rule:evenodd;clip-rule:evenodd;fill:#FFFFFF;enable-background:new    ;" d="
	M0.687,1094.35h156.394c25.863,0,43.221-19.27,38.882-43.57l18.746,43.57H335.52c-28.814-28.12-94.947-211.248-104.147-248.914
	H104.834C95.634,883.1,29.5,1066.23,0.687,1094.35z M164.892,1068.83c-16.316,0-32.806-20.65-46.519-75.158
	c-7.117-28.467-11.109-53.115-11.109-70.82c0-14.754,2.6-28.988,14.581-28.988c16.143,0,26.037,32.286,40.617,81.756
	c8.679,29.51,13.539,54.33,13.539,70.99C176,1060.67,172.53,1068.83,164.892,1068.83z"/>
</svg>
