<?xml version="1.0" encoding="iso-8859-1"?>
<!-- Generator: Adobe Illustrator 25.2.3, SVG Export Plug-In . SVG Version: 6.00 Build 0)  -->
<svg version="1.1" id="&#x30EC;&#x30A4;&#x30E4;&#x30FC;_1"
	 xmlns="http://www.w3.org/2000/svg" xmlns:xlink="http://www.w3.org/1999/xlink" x="0px" y="0px" viewBox="0 0 3440 1100"
	 style="enable-background:new 0 0 3440 1100;" xml:space="preserve">
<path id="_2017.9.27_Synapse_digital_single_release" style="opacity:0.88;fill-rule:evenodd;clip-rule:evenodd;fill:#FFFFFF;enable-background:new    ;" d="
	M781.318,695.371l1.419,0.9c2.04-3.424,5.465-5.4,10.135-5.4c4.7,0,9.166,1.972,9.166,5.6c0,3.182-3.805,4.635-8.993,6.537
	c-7.022,2.629-11.692,6.123-12.522,10.17v1h23.971v-1.626h-21.723c0.865-3.251,5.431-5.984,11.138-8.059
	c5.881-2.11,10-4.013,10-8.06c0-4.566-5.4-7.16-11-7.16C787.406,689.283,783.186,691.843,781.318,695.371z M822.871,714.914
	c8.752,0,13.767-5.05,13.767-12.833s-5.015-12.833-13.767-12.833s-13.766,5.05-13.766,12.833S814.12,714.914,822.871,714.914
	L822.871,714.914z M822.871,713.219c-7.3,0-11.933-3.943-11.933-11.138s4.635-11.138,11.933-11.138c7.264,0,11.9,3.943,11.9,11.138
	S830.135,713.219,822.871,713.219L822.871,713.219z M847.886,714.188h1.8v-24.213H848.3c-2.242,2.122-5.034,3.572-8.059,4.185v1.626
	c2.836-0.434,5.488-1.67,7.644-3.563v21.965L847.886,714.188z M862.124,714.188h2.214l14.528-22.864v-1.349H854.93v1.625h21.653
	L862.124,714.188z M883.79,714.464c0.764-0.038,1.353-0.687,1.315-1.451c-0.038-0.764-0.687-1.353-1.451-1.315
	c-0.738,0.036-1.317,0.645-1.317,1.384c-0.013,0.753,0.587,1.373,1.34,1.386C883.714,714.467,883.752,714.466,883.79,714.464
	L883.79,714.464z M902.15,689.248c-7.3,0-12.072,3.356-12.072,8.025c0,5.362,4.843,7.818,10.965,7.818
	c5.673,0,10.412-2.353,12.7-5.742c0.171,0.9,0.252,1.816,0.242,2.732c0,7.4-4.808,11.242-11.9,11.242
	c-3.978,0-7.264-1.211-9.547-3.909l-1.418,1.073c2.421,2.836,6.053,4.427,11.034,4.427c8.648,0,13.7-5.085,13.7-12.833
	S910.8,689.248,902.15,689.248L902.15,689.248z M901.355,703.534c-5.5,0-9.443-1.972-9.443-6.261c0-3.908,4.081-6.434,10.238-6.434
	c5.569,0,9.685,2.353,11.207,6.953C910.936,701.389,906.163,703.534,901.355,703.534L901.355,703.534z M922.394,714.464
	c0.764-0.038,1.353-0.687,1.315-1.451c-0.038-0.764-0.687-1.353-1.451-1.315c-0.738,0.036-1.317,0.645-1.317,1.384
	c-0.013,0.753,0.587,1.373,1.34,1.386C922.318,714.467,922.356,714.466,922.394,714.464L922.394,714.464z M929.166,695.371
	l1.418,0.9c2.041-3.424,5.465-5.4,10.135-5.4c4.7,0,9.166,1.972,9.166,5.6c0,3.182-3.8,4.635-8.993,6.537
	c-7.022,2.629-11.691,6.123-12.521,10.17v1h23.97v-1.626h-21.722c0.865-3.251,5.43-5.984,11.138-8.059c5.88-2.11,10-4.013,10-8.06
	c0-4.566-5.4-7.16-11-7.16C935.254,689.283,931.034,691.843,929.166,695.371L929.166,695.371z M962.625,714.188h2.214l14.527-22.864
	v-1.349H955.43v1.625h21.653L962.625,714.188z M995.834,695.3c0.747,0.036,1.381-0.541,1.417-1.288
	c0.002-0.032,0.002-0.064,0.001-0.096c0.037-0.727-0.523-1.346-1.25-1.383c-0.033-0.002-0.066-0.002-0.099-0.001
	c-0.157-0.012-0.313,0.022-0.45,0.1c0.176-1.389,0.726-2.704,1.591-3.805l-0.691-0.484c-1.259,1.534-1.965,3.447-2.007,5.431
	c-0.056,0.786,0.535,1.468,1.321,1.524C995.723,695.302,995.778,695.303,995.834,695.3z M999.95,695.3
	c0.748,0.036,1.383-0.542,1.419-1.29c0.002-0.031,0.002-0.063,0.001-0.094c0.035-0.729-0.527-1.348-1.256-1.383
	c-0.031-0.001-0.063-0.002-0.094-0.001c-0.163-0.019-0.327,0.032-0.451,0.139c0.178-1.387,0.727-2.7,1.591-3.8l-0.69-0.519
	c-1.259,1.534-1.966,3.447-2.007,5.431c-0.052,0.785,0.543,1.464,1.329,1.515C999.844,695.302,999.897,695.302,999.95,695.3z
	 M1019.79,700.9c-6.05-0.553-11.1-1.453-11.1-4.808c0-3.563,5.57-5.188,10.24-5.154c4.29,0.035,7.95,1.142,10.38,3.736l1.41-1.176
	c-2.52-2.56-6.6-4.255-11.86-4.255c-6.23,0-12.04,2.456-12.04,6.884c0,4.566,6.09,5.88,12.35,6.468c6.95,0.657,11,1.591,11,4.946
	c0,3.286-3.7,5.673-10.38,5.673c-5.15,0-9.54-1.487-12.52-4.773l-1.31,1.28c3.15,3.424,8.16,5.188,13.76,5.188
	c7.93,0,12.28-3.251,12.28-7.471c0-4.527-4.98-5.91-12.21-6.533L1019.79,700.9z M1055.15,695.4l-9.13,15.566l-9.2-15.566h-2.01
	l10.24,17.4l-5.01,8.3h1.97l15.08-25.7H1055.15z M1063.54,714.183v-12.309c1.577-3.538,5.161-5.748,9.03-5.569
	c4.98,0,7.29,2.767,7.29,7.506v10.377h1.77v-10.481c0-5.223-2.77-8.993-8.79-8.993c-4.22,0-7.57,1.9-9.3,5.015v-4.324h-1.77v18.783
	h1.77V714.183z M1097.62,694.709c-3.185-0.029-6.31,0.873-8.99,2.594l0.83,1.314c2.342-1.566,5.103-2.386,7.92-2.352
	c5.5,0,8.3,2.56,8.3,7.541v1.971c-1.38-2.49-4.81-4.185-8.96-4.185c-4.18,0-9.79,1.7-9.79,6.641s5.61,6.642,9.79,6.642
	c4.15,0,7.58-1.73,8.96-4.186v0.1c-0.043,1.18,0.229,2.351,0.79,3.39h1.91c-0.645-1.123-0.958-2.406-0.9-3.7v-6.676
	c0-6.011-3.77-9.089-9.86-9.089V694.709z M1105.71,708.856c-1.48,3.113-5.22,4.5-8.85,4.5c-3.22,0-8.16-1.073-8.16-5.12
	c0-4.081,4.94-5.154,8.16-5.154c3.63,0,7.37,1.349,8.85,4.5v1.28V708.856z M1125.86,714.875c6.47,0,10.34-4.082,10.34-10.1
	c0-5.984-3.87-10.065-10.34-10.065c-4.33,0-7.72,1.867-9.48,4.808v-4.117h-1.76v25.7h1.76v-11.029c1.76,2.94,5.15,4.808,9.48,4.808
	V714.875z M1125.48,696.3c5.64,0,8.92,3.217,8.92,8.474c0,5.293-3.28,8.509-8.92,8.509c-3.774,0.181-7.315-1.824-9.1-5.154v-6.675
	c1.786-3.328,5.328-5.331,9.1-5.149V696.3z M1150.88,703.7c-4.4-0.346-8.27-0.969-8.27-3.6c0-2.8,4.22-3.944,7.58-3.909
	c2.947-0.115,5.82,0.942,7.99,2.94l1.17-1.176c-2.526-2.173-5.769-3.332-9.1-3.251c-5.12,0-9.4,1.937-9.4,5.465
	c0,3.666,4.6,4.635,9.47,5.05c5.19,0.484,8.37,1.28,8.37,3.909c0,2.559-3.01,4.254-7.88,4.254c-4.08,0-7.23-1.28-9.48-3.7
	l-1.21,1.038c2.812,2.818,6.672,4.335,10.65,4.185c6.33,0,9.69-2.629,9.69-5.915c0-3.484-3.98-4.799-9.58-5.283V703.7z
	 M1175.52,694.707c-7.02,0-11.1,3.943-11.1,10.1c0,6.122,4.08,10.1,11.17,10.1c4.53,0,7.57-1.072,10.13-3.459l-1.17-1.245
	c-2.29,2.179-4.88,3.148-8.89,3.148c-5.74,0-9.45-2.941-9.45-8.51h20.1c0.04-0.11,0.054-0.228,0.04-0.345
	c-0.11-6.116-4.12-9.782-10.83-9.782V694.707z M1175.52,696.229c4.95,0,8.37,2.352,9.03,7.125h-18.27
	c0.59-4.628,4.12-7.118,9.24-7.118V696.229z M1196.73,689.449c-0.743-0.035-1.374,0.539-1.409,1.282
	c-0.002,0.034-0.002,0.067-0.001,0.101c-0.038,0.726,0.52,1.345,1.246,1.383c0.035,0.002,0.069,0.002,0.104,0.001
	c0.153,0.013,0.307-0.022,0.44-0.1c-0.171,1.389-0.721,2.703-1.59,3.8l0.7,0.484c1.257-1.535,1.961-3.447,2-5.43
	c0.049-0.787-0.549-1.464-1.336-1.513c-0.051-0.003-0.103-0.004-0.154-0.001V689.449z M1192.65,689.483
	c-0.748-0.051-1.395,0.513-1.447,1.261c-0.002,0.029-0.003,0.059-0.003,0.088c-0.036,0.728,0.524,1.347,1.252,1.383
	c0.033,0.002,0.065,0.002,0.098,0.001c0.156,0.012,0.313-0.023,0.45-0.1c-0.166,1.39-0.717,2.706-1.59,3.8l0.69,0.484
	c1.263-1.523,1.981-3.423,2.04-5.4c0.048-0.786-0.55-1.461-1.336-1.509c-0.051-0.003-0.103-0.003-0.154-0.001V689.483z
	 M791.25,752.307c-6.5,0-10.343,4.081-10.343,10.1c0,5.984,3.84,10.066,10.343,10.066c4.289,0,7.679-1.868,9.477-4.808v4.116h1.765
	v-25.6h-1.765v10.931c-1.802-2.931-5.192-4.798-9.481-4.798L791.25,752.307z M791.596,770.881c-5.6,0-8.89-3.216-8.89-8.474
	c0-5.292,3.286-8.509,8.89-8.509c3.779-0.172,7.325,1.829,9.131,5.154v6.675c-1.804,3.329-5.353,5.334-9.135,5.161L791.596,770.881z
	 M810.873,749.851c0.743,0.039,1.377-0.531,1.416-1.274c0.001-0.025,0.002-0.05,0.002-0.075c-0.001-0.729-0.592-1.319-1.321-1.319
	c-0.032,0-0.065,0.001-0.097,0.004c-0.744-0.057-1.393,0.501-1.45,1.245c-0.002,0.023-0.003,0.047-0.003,0.07
	c0.01,0.76,0.635,1.368,1.396,1.358c0.018,0,0.036-0.001,0.053-0.002L810.873,749.851z M811.773,752.998H810v18.783h1.764v-18.776
	L811.773,752.998z M839.373,752.998H837.6v4.117c-1.8-2.941-5.189-4.808-9.478-4.808c-6.5,0-10.342,4.081-10.342,10.1
	c0,5.984,3.839,10.066,10.342,10.066c3.779,0.146,7.364-1.672,9.478-4.808v2.535c0,4.981-3.355,7.609-9.1,7.609
	c-2.802,0.04-5.546-0.794-7.852-2.386l-0.865,1.349c2.614,1.76,5.704,2.678,8.855,2.629c6.053,0,10.723-2.975,10.723-9.34v-17.056
	L839.373,752.998z M828.473,770.881c-5.6,0-8.889-3.216-8.889-8.474c0-5.292,3.286-8.509,8.889-8.509
	c3.783-0.188,7.337,1.818,9.132,5.154v6.675c-1.794,3.341-5.351,5.35-9.138,5.161L828.473,770.881z M847.751,749.851
	c0.743,0.039,1.377-0.531,1.416-1.274c0.001-0.025,0.002-0.05,0.002-0.075c-0.001-0.729-0.592-1.319-1.321-1.319
	c-0.032,0-0.065,0.001-0.097,0.004c-0.743-0.057-1.392,0.499-1.449,1.243c-0.002,0.024-0.003,0.048-0.004,0.072
	c0.01,0.76,0.634,1.368,1.394,1.358c0.018,0,0.035-0.001,0.053-0.002L847.751,749.851z M848.651,752.998h-1.771v18.783h1.764
	v-18.776L848.651,752.998z M867.321,769.429c-1.274,0.884-2.774,1.387-4.323,1.452c-2.249,0-4.151-1.245-4.151-3.735V754.6h9.028
	v-1.592h-9.035v-4.358h-1.764v4.358h-3.909v1.592h3.909v12.8c0,3.424,2.7,5.085,5.672,5.085c1.891-0.039,3.726-0.655,5.258-1.765
	L867.321,769.429z M881.04,752.307c-3.187-0.03-6.313,0.872-8.994,2.594l0.83,1.314c2.343-1.565,5.104-2.385,7.921-2.352
	c5.5,0,8.3,2.56,8.3,7.541v1.971c-1.384-2.49-4.808-4.185-8.959-4.185c-4.185,0-9.789,1.7-9.789,6.641s5.6,6.642,9.789,6.642
	c4.151,0,7.575-1.73,8.959-4.186v0.1c-0.044,1.181,0.232,2.353,0.8,3.39h1.9c-0.644-1.123-0.956-2.406-0.9-3.7v-6.676
	c-0.006-6.009-3.777-9.087-9.864-9.087L881.04,752.307z M889.134,766.454c-1.488,3.113-5.223,4.5-8.855,4.5
	c-3.217,0-8.164-1.073-8.164-5.12c0-4.081,4.947-5.154,8.164-5.154c3.632,0,7.367,1.349,8.855,4.5v1.28V766.454z M899.903,771.781
	v-25.6h-1.764v25.6h1.761H899.903z M927.557,761.3c-4.393-0.346-8.267-0.969-8.267-3.6c0-2.8,4.22-3.944,7.575-3.909
	c2.948-0.118,5.822,0.94,7.991,2.94l1.176-1.176c-2.526-2.173-5.769-3.332-9.1-3.251c-5.12,0-9.409,1.937-9.409,5.465
	c0,3.666,4.6,4.635,9.478,5.05c5.188,0.484,8.371,1.28,8.371,3.909c0,2.559-3.01,4.254-7.887,4.254c-4.082,0-7.229-1.28-9.478-3.7
	l-1.21,1.038c2.813,2.819,6.675,4.336,10.654,4.185c6.329,0,9.685-2.629,9.685-5.915c-0.004-3.484-3.982-4.799-9.586-5.283
	L927.557,761.3z M943.557,749.851c0.743,0.039,1.377-0.531,1.416-1.274c0.001-0.025,0.002-0.05,0.002-0.075
	c-0.001-0.729-0.592-1.319-1.321-1.319c-0.032,0-0.065,0.001-0.097,0.004c-0.744-0.057-1.393,0.501-1.45,1.245
	c-0.002,0.023-0.003,0.047-0.003,0.07c0.011,0.76,0.636,1.368,1.396,1.358c0.015,0,0.03-0.001,0.045-0.001L943.557,749.851z
	 M944.457,752.998h-1.777v18.783h1.764v-18.776L944.457,752.998z M953.719,771.781v-12.307c1.577-3.537,5.16-5.747,9.028-5.569
	c4.981,0,7.3,2.767,7.3,7.506v10.377h1.753v-10.481c0-5.223-2.768-8.993-8.786-8.993c-4.22,0-7.575,1.9-9.3,5.015v-4.324h-1.764
	v18.783h1.764L953.719,771.781z M999.147,752.998h-1.777v4.117c-1.8-2.941-5.189-4.808-9.478-4.808c-6.5,0-10.342,4.081-10.342,10.1
	c0,5.984,3.839,10.066,10.342,10.066c3.779,0.146,7.364-1.673,9.478-4.808v2.535c0,4.981-3.355,7.609-9.1,7.609
	c-2.802,0.04-5.546-0.794-7.852-2.386l-0.865,1.349c2.614,1.76,5.704,2.678,8.855,2.629c6.053,0,10.723-2.975,10.723-9.34v-17.056
	L999.147,752.998z M988.247,770.881c-5.6,0-8.89-3.216-8.89-8.474c0-5.292,3.286-8.509,8.89-8.509
	c3.783-0.188,7.337,1.818,9.132,5.154v6.675c-1.794,3.342-5.353,5.351-9.141,5.161L988.247,770.881z M1008.419,771.781v-25.6h-1.76
	v25.6H1008.419z M1025.609,752.307c-7.02,0-11.11,3.943-11.11,10.1c0,6.122,4.09,10.1,11.18,10.1c4.53,0,7.57-1.072,10.13-3.459
	l-1.17-1.245c-2.29,2.179-4.88,3.148-8.89,3.148c-5.75,0-9.45-2.941-9.45-8.51h20.1c0.03-0.112,0.04-0.229,0.03-0.345
	c-0.109-6.116-4.119-9.782-10.829-9.782L1025.609,752.307z M1025.609,753.829c4.94,0,8.37,2.352,9.03,7.125h-18.27
	c0.581-4.628,4.111-7.118,9.231-7.118L1025.609,753.829z M1055.249,771.781V760.2c1.56-3.943,5.4-5.915,9.72-5.915v-1.591
	c-4.22,0-8.23,1.972-9.72,5.258v-4.947h-1.76v18.783h1.76V771.781z M1078.929,752.307c-7.02,0-11.1,3.943-11.1,10.1
	c0,6.122,4.08,10.1,11.17,10.1c4.53,0,7.58-1.072,10.14-3.459l-1.18-1.245c-2.28,2.179-4.88,3.148-8.89,3.148
	c-5.74,0-9.44-2.941-9.44-8.51h20.1c0.03-0.112,0.04-0.229,0.03-0.345c-0.109-6.116-4.129-9.782-10.839-9.782L1078.929,752.307z
	 M1078.929,753.829c4.95,0,8.37,2.352,9.03,7.125h-18.26c0.581-4.628,4.101-7.118,9.221-7.118L1078.929,753.829z M1097.349,771.781
	v-25.6h-1.77v25.6H1097.349z M1114.529,752.307c-7.02,0-11.1,3.943-11.1,10.1c0,6.122,4.08,10.1,11.17,10.1
	c4.53,0,7.57-1.072,10.13-3.459l-1.17-1.245c-2.28,2.179-4.88,3.148-8.89,3.148c-5.74,0-9.44-2.941-9.44-8.51h20.09
	c0.04-0.11,0.054-0.228,0.04-0.345c-0.119-6.116-4.129-9.782-10.839-9.782L1114.529,752.307z M1114.529,753.829
	c4.95,0,8.37,2.352,9.03,7.125h-18.27c0.581-4.628,4.111-7.118,9.231-7.118L1114.529,753.829z M1139.829,752.307
	c-3.189-0.03-6.317,0.871-9,2.594l0.83,1.314c2.346-1.566,5.11-2.386,7.93-2.352c5.5,0,8.3,2.56,8.3,7.541v1.971
	c-1.39-2.49-4.81-4.185-8.96-4.185c-4.19,0-9.79,1.7-9.79,6.641s5.6,6.642,9.79,6.642c4.15,0,7.57-1.73,8.96-4.186v0.1
	c-0.048,1.181,0.225,2.352,0.79,3.39h1.91c-0.645-1.123-0.958-2.406-0.9-3.7v-6.676c-0.009-6.009-3.779-9.087-9.869-9.087
	L1139.829,752.307z M1147.919,766.454c-1.49,3.113-5.22,4.5-8.85,4.5c-3.22,0-8.17-1.073-8.17-5.12c0-4.081,4.95-5.154,8.17-5.154
	c3.63,0,7.36,1.349,8.85,4.5v1.28V766.454z M1165.569,761.3c-4.39-0.346-8.26-0.969-8.26-3.6c0-2.8,4.22-3.944,7.57-3.909
	c2.948-0.119,5.822,0.939,7.99,2.94l1.18-1.176c-2.526-2.173-5.769-3.332-9.1-3.251c-5.12,0-9.41,1.937-9.41,5.465
	c0,3.666,4.6,4.635,9.48,5.05c5.19,0.484,8.37,1.28,8.37,3.909c0,2.559-3.01,4.254-7.88,4.254c-4.09,0-7.23-1.28-9.48-3.7
	l-1.21,1.038c2.811,2.82,6.672,4.337,10.65,4.185c6.33,0,9.69-2.629,9.69-5.915c-0.009-3.484-3.989-4.799-9.599-5.283
	L1165.569,761.3z M1190.219,752.307c-7.02,0-11.11,3.943-11.11,10.1c0,6.122,4.09,10.1,11.18,10.1c4.53,0,7.57-1.072,10.13-3.459
	l-1.18-1.245c-2.28,2.179-4.87,3.148-8.88,3.148c-5.75,0-9.45-2.941-9.45-8.51H1201c0.03-0.112,0.04-0.229,0.03-0.345
	c-0.1-6.116-4.11-9.782-10.82-9.782L1190.219,752.307z M1190.219,753.829c4.94,0,8.37,2.352,9.02,7.125h-18.26
	c0.581-4.628,4.111-7.118,9.231-7.118L1190.219,753.829z"/>
</svg>
