<?xml version="1.0" encoding="iso-8859-1"?>
<!-- Generator: Adobe Illustrator 25.2.3, SVG Export Plug-In . SVG Version: 6.00 Build 0)  -->
<svg version="1.1" id="&#x30EC;&#x30A4;&#x30E4;&#x30FC;_1"
	 xmlns="http://www.w3.org/2000/svg" xmlns:xlink="http://www.w3.org/1999/xlink" x="0px" y="0px" viewBox="0 0 3440 1100"
	 style="enable-background:new 0 0 3440 1100;" xml:space="preserve">
<path id="ANNIVERSARY" style="opacity:0.88;fill-rule:evenodd;clip-rule:evenodd;fill:#FFFFFF;enable-background:new    ;" d="
	M2744.35,1094.35h147.89c-2.95-2.78-8.68-5.04-10.76-22.74c-1.39-11.46-1.73-14.93-2.08-33.85c0-20.13,30.2-81.06,51.9-129.315
	c13.88-30.2,30.9-60.059,33.85-63.009H2826.8c2.78,2.95,19.62,37.666,30.9,69.084c11.8,31.591,15.97,43.742,16.32,57.455
	c0.69,12.5-5.21,28.115-7.47,33.155c-14.92-49.125-49.99-128.277-62.83-159.694h-132.27c2.78,2.95,19.96,32.806,33.85,63.009
	c21.52,48.255,51.9,109.185,51.9,129.315c-0.52,18.92-0.87,22.39-2.26,33.85C2753.21,1089.31,2747.13,1091.57,2744.35,1094.35
	L2744.35,1094.35z"/>
</svg>
