<?xml version="1.0" encoding="iso-8859-1"?>
<!-- Generator: Adobe Illustrator 25.2.3, SVG Export Plug-In . SVG Version: 6.00 Build 0)  -->
<svg version="1.1" id="&#x30EC;&#x30A4;&#x30E4;&#x30FC;_1"
	 xmlns="http://www.w3.org/2000/svg" xmlns:xlink="http://www.w3.org/1999/xlink" x="0px" y="0px" viewBox="0 0 3440 1100"
	 style="enable-background:new 0 0 3440 1100;" xml:space="preserve">
<path id="ANNIVERSARY" style="opacity:0.88;fill-rule:evenodd;clip-rule:evenodd;fill:#FFFFFF;enable-background:new    ;" d="
	M1331.22,1094.35h216.1v-56.94c-19.44,16.15-63.18,34.55-86.79,34.55c-3.12-27.78-3.47-83.495-3.47-128.452
	c29.86,1.735,51.21,9.2,59.02,18.573v-61.1c-7.81,9.2-28.82,16.316-58.67,18.4c0.69-20.482,1.73-39.055,3.12-51.553
	c33.68,0,63.36,8.506,86.79,34.542v-56.934h-216.1c0.426,0.607,0.953,1.136,1.56,1.562c3.12,2.256,6.94,6.6,8.68,21
	c2.6,22.044,3.82,63.009,3.82,101.891c0,39.918-1.22,80.018-3.82,102.068c-1.74,14.58-6.25,18.4-8.86,21L1331.22,1094.35z"/>
</svg>
