<?xml version="1.0" encoding="iso-8859-1"?>
<!-- Generator: Adobe Illustrator 25.2.3, SVG Export Plug-In . SVG Version: 6.00 Build 0)  -->
<svg version="1.1" id="&#x30EC;&#x30A4;&#x30E4;&#x30FC;_1"
	 xmlns="http://www.w3.org/2000/svg" xmlns:xlink="http://www.w3.org/1999/xlink" x="0px" y="0px" viewBox="0 0 3440 1100"
	 style="enable-background:new 0 0 3440 1100;" xml:space="preserve">
<path id="_5" style="opacity:0.88;fill-rule:evenodd;clip-rule:evenodd;fill:#FFFFFF;enable-background:new    ;" d="
	M2066.92,431.461c6.05-2.873,13.84-4.563,23.89-4.563c51.17,0,130.37,44.859,196.26,44.859c89.02,0,128.27-82.708,153.85-162.262
	l-2.45-0.351c-11.92,30.139-45.56,44.856-86.22,44.856c-70.09,0-126.16-42.756-178.03-42.756c-70.79,0-96.73,78.5-113.55,127.567
	L2006,600.025c94.97-54.321,246.02-49.064,246.02,66.237c0,73.6-46.26,141.235-113.2,141.235c-37.85,0-65.53-22.429-65.53-56.423
	c0-26.986,14.02-50.116,38.55-62.032c3.5-40.653-24.53-63.083-58.88-63.083c-47.66,0-84.81,38.551-84.81,86.914
	c0,82.709,113.9,98.129,170.32,98.129c147.9,0,267.05-92.171,267.05-206.421c0-160.419-283.85-142.623-392.68-13.758
	L2066.92,431.461z"/>
</svg>
