<?xml version="1.0" encoding="iso-8859-1"?>
<!-- Generator: Adobe Illustrator 25.2.3, SVG Export Plug-In . SVG Version: 6.00 Build 0)  -->
<svg version="1.1" id="&#x30EC;&#x30A4;&#x30E4;&#x30FC;_1"
	 xmlns="http://www.w3.org/2000/svg" xmlns:xlink="http://www.w3.org/1999/xlink" x="0px" y="0px" viewBox="0 0 3440 1100"
	 style="enable-background:new 0 0 3440 1100;" xml:space="preserve">
<path id="ANNIVERSARY" style="opacity:0.88;fill-rule:evenodd;clip-rule:evenodd;fill:#FFFFFF;enable-background:new    ;" d="
	M605.207,1094.35h171.322c-36.625-24.48-134.35-98.422-134.35-168.547l187.639,168.547h35.236c-2.777-2.78-8.158-5.04-10.241-22.74
	c-5.207-44.09-5.207-160.735,0-205.171c2.083-17.7,7.464-18.053,10.241-21H762.3c40.271,18.92,66.828,57.628,66.828,95.294
	L722.2,845.436H605.207c2.777,2.95,8.5,5.033,10.588,22.738c5.207,44.089,5.207,160.736,0,205.166
	C613.712,1091.22,607.984,1091.57,605.207,1094.35L605.207,1094.35z"/>
</svg>
