<?xml version="1.0" encoding="iso-8859-1"?>
<!-- Generator: Adobe Illustrator 25.2.3, SVG Export Plug-In . SVG Version: 6.00 Build 0)  -->
<svg version="1.1" id="&#x30EC;&#x30A4;&#x30E4;&#x30FC;_1"
	 xmlns="http://www.w3.org/2000/svg" xmlns:xlink="http://www.w3.org/1999/xlink" x="0px" y="0px" viewBox="0 0 3440 1100"
	 style="enable-background:new 0 0 3440 1100;" xml:space="preserve">
<path id="ANNIVERSARY" style="opacity:0.88;fill-rule:evenodd;clip-rule:evenodd;fill:#FFFFFF;enable-background:new    ;" d="
	M335.081,1094.35H506.4c-36.625-24.48-134.35-98.422-134.35-168.547l187.642,168.547h35.237c-2.778-2.78-8.159-5.04-10.241-22.74
	c-5.208-44.09-5.208-160.735,0-205.171c2.082-17.7,7.463-18.053,10.241-21H492.17C532.44,864.356,559,903.064,559,940.73
	l-106.927-95.294H335.081c2.777,2.95,8.5,5.033,10.588,22.738c5.208,44.089,5.208,160.736,0,205.166
	C343.586,1091.22,337.858,1091.57,335.081,1094.35z"/>
</svg>
