<?xml version="1.0" encoding="iso-8859-1"?>
<!-- Generator: Adobe Illustrator 25.2.3, SVG Export Plug-In . SVG Version: 6.00 Build 0)  -->
<svg version="1.1" id="&#x30EC;&#x30A4;&#x30E4;&#x30FC;_1"
	 xmlns="http://www.w3.org/2000/svg" xmlns:xlink="http://www.w3.org/1999/xlink" x="0px" y="0px" viewBox="0 0 3440 1100"
	 style="enable-background:new 0 0 3440 1100;" xml:space="preserve">
<path id="ANNIVERSARY" style="opacity:0.88;fill-rule:evenodd;clip-rule:evenodd;fill:#FFFFFF;enable-background:new    ;" d="
	M2417.32,1094.35h139.91c-2.43-2.78-6.25-6.77-10.07-21.18c-4.86-19.61-3.64-78.457-3.99-101.543l33.15,122.723h131.05
	c-27.6-27.25-36.45-63.36-45.3-86.62c-11.8-31.069-38.01-25.688-56.59-25.688c-35.93,0-37.49-7.637-37.49-12.15
	c47.56,0,98.77-8.679,98.77-63.357c0-69.258-87.31-61.1-152.06-61.1h-97.38c2.43,2.95,8.16,5.033,10.24,22.391
	c2.61,23.086,4,65.787,3.82,107.619c-0.17,38.014-1.21,75.5-3.82,96.514C2425.48,1089.31,2419.75,1091.57,2417.32,1094.35
	L2417.32,1094.35z M2543.52,948.715c0.17-8.5,0.17-18.746,0-28.988l-0.18-52.594c14.93,0,26.21,15.1,26.21,39.4
	C2569.55,924.588,2562.61,948.715,2543.52,948.715L2543.52,948.715z"/>
</svg>
