<?xml version="1.0" encoding="iso-8859-1"?>
<!-- Generator: Adobe Illustrator 25.2.3, SVG Export Plug-In . SVG Version: 6.00 Build 0)  -->
<svg version="1.1" id="&#x30EC;&#x30A4;&#x30E4;&#x30FC;_1"
	 xmlns="http://www.w3.org/2000/svg" xmlns:xlink="http://www.w3.org/1999/xlink" x="0px" y="0px" viewBox="0 0 3440 1100"
	 style="enable-background:new 0 0 3440 1100;" xml:space="preserve">
<path id="ANNIVERSARY" style="opacity:0.88;fill-rule:evenodd;clip-rule:evenodd;fill:#FFFFFF;enable-background:new    ;" d="
	M2001.68,1099.03c63.53,0,101.2-32.8,101.2-85.05c0-113.867-159.35-105.882-159.17-134.349c0-9.547,12.15-14.407,29.33-14.407
	c33.68,0,87.31,18.746,108.32,57.628V841.27c-12.68,3.124-26.04,4.166-39.75,4.166c-27.43,0-56.24-4.166-82.28-4.166
	c-72.21,0-108.49,28.119-108.49,84.185c0,102.065,151.36,103.1,151.36,136.6c0,8.85-6.24,12.67-16.49,12.67
	c-31.41,0-99.63-37.32-131.57-82.62v106.58c14.23-3.65,29.51-4.86,45.13-4.86C1931.73,1093.83,1966.79,1099.03,2001.68,1099.03
	L2001.68,1099.03z"/>
</svg>
