<?xml version="1.0" encoding="iso-8859-1"?>
<!-- Generator: Adobe Illustrator 25.2.3, SVG Export Plug-In . SVG Version: 6.00 Build 0)  -->
<svg version="1.1" id="&#x30EC;&#x30A4;&#x30E4;&#x30FC;_1"
	 xmlns="http://www.w3.org/2000/svg" xmlns:xlink="http://www.w3.org/1999/xlink" x="0px" y="0px" viewBox="0 0 3440 1100"
	 style="enable-background:new 0 0 3440 1100;" xml:space="preserve">
<path id="_2017_-_2022" style="opacity:0.88;fill-rule:evenodd;clip-rule:evenodd;fill:#FFFFFF;enable-background:new    ;" d="
	M2585.11,273.459h254.14V195.5c-48.92,44.043-138.31,48.166-160.62,48.166c110.77-19.866,168.68-80.966,168.68-136.254
	c0-77.777-55.29-106.639-138.69-107.2c-107.95-0.75-125.94,45.729-125.94,79.276c0,30.174,24.55,59.786,65.97,59.786
	c43.29,0,58.66-32.61,58.66-55.1c0-26.425-23.05-52.289-57.54-52.289c4.31-3.373,11.06-5.248,18.93-5.248
	c23.99,0,57.16,17.992,55.47,68.407c-2.99,91.271-108.51,149.557-139.06,149.557v28.862V273.459z"/>
</svg>
