<?xml version="1.0" encoding="iso-8859-1"?>
<!-- Generator: Adobe Illustrator 25.2.3, SVG Export Plug-In . SVG Version: 6.00 Build 0)  -->
<svg version="1.1" id="&#x30EC;&#x30A4;&#x30E4;&#x30FC;_1"
	 xmlns="http://www.w3.org/2000/svg" xmlns:xlink="http://www.w3.org/1999/xlink" x="0px" y="0px" viewBox="0 0 41 43"
	 style="enable-background:new 0 0 41 43;" xml:space="preserve">
<path id="&#x30B7;&#x30A7;&#x30A4;&#x30D7;_2" style="fill-rule:evenodd;clip-rule:evenodd;fill:#ECECF5;" d="M29.016,1.26H11.991
	C5.659,1.236,0.507,6.349,0.483,12.681v17.572c0.024,6.332,5.176,11.445,11.508,11.422h17.025
	c6.332,0.024,11.485-5.09,11.509-11.422V12.681C40.501,6.349,35.348,1.236,29.016,1.26C29.016,1.26,29.016,1.26,29.016,1.26z
	 M4.569,12.681c0.018-4.083,3.34-7.38,7.423-7.367h17.024c4.083-0.013,7.405,3.284,7.423,7.367v17.572
	c-0.018,4.083-3.34,7.381-7.423,7.368H11.991c-4.083,0.013-7.405-3.285-7.423-7.368L4.569,12.681L4.569,12.681z M20.5,31.876
	c5.749-0.041,10.376-4.734,10.335-10.483s-4.734-10.376-10.483-10.335c-5.72,0.041-10.335,4.689-10.335,10.408
	C10.045,27.233,14.734,31.889,20.5,31.876z M20.5,14.305c3.956,0.03,7.14,3.261,7.11,7.218c-0.03,3.956-3.261,7.14-7.218,7.11
	c-3.936-0.03-7.111-3.229-7.11-7.166C13.3,17.496,16.529,14.29,20.5,14.3V14.305z M31.3,8.423c1.288,0.009,2.324,1.061,2.315,2.349
	s-1.061,2.324-2.349,2.315c-1.282-0.009-2.316-1.051-2.315-2.333C28.957,9.462,30.008,8.419,31.3,8.423z"/>
</svg>
