<?xml version="1.0" encoding="iso-8859-1"?>
<!-- Generator: Adobe Illustrator 25.2.3, SVG Export Plug-In . SVG Version: 6.00 Build 0)  -->
<svg version="1.1" id="&#x30EC;&#x30A4;&#x30E4;&#x30FC;_1"
	 xmlns="http://www.w3.org/2000/svg" xmlns:xlink="http://www.w3.org/1999/xlink" x="0px" y="0px" viewBox="0 0 35 43"
	 style="enable-background:new 0 0 35 43;" xml:space="preserve">
<path id="&#x30B7;&#x30A7;&#x30A4;&#x30D7;_1" style="fill-rule:evenodd;clip-rule:evenodd;fill:#ECECF5;" d="M34.249,17.1v14.7
	c0.036,1.074-0.187,2.14-0.649,3.11c-0.732,1.473-2.077,2.548-3.675,2.937c-0.925,0.257-1.877,0.405-2.836,0.442
	c-2.467,0.17-4.673-1.525-5.146-3.952c-0.383-2.162,0.751-4.307,2.753-5.208c0.86-0.384,1.764-0.66,2.691-0.823
	c1-0.211,2.008-0.4,3-0.624c0.692-0.101,1.24-0.638,1.356-1.328c0.038-0.161,0.055-0.326,0.052-0.492V11.845
	c-0.004-0.16-0.028-0.319-0.072-0.473c-0.076-0.377-0.424-0.635-0.807-0.6c-0.421,0.026-0.84,0.083-1.252,0.172
	c-2.02,0.381-4.036,0.773-6.047,1.175l-9.8,1.921c-0.044,0.014-0.089,0.024-0.135,0.03c-0.63,0.072-1.086,0.636-1.026,1.267
	c-0.01,0.11,0,0.223,0,0.332c-0.01,6.7,0,13.394-0.01,20.089c0.035,1.08-0.159,2.156-0.568,3.156
	c-0.702,1.593-2.107,2.768-3.8,3.177c-0.931,0.263-1.891,0.412-2.858,0.442c-2.46,0.162-4.65-1.548-5.089-3.974
	c-0.417-2.288,0.871-4.545,3.053-5.35c0.953-0.355,1.938-0.62,2.94-0.793c0.755-0.149,1.523-0.3,2.278-0.451
	c0.924-0.114,1.613-0.909,1.594-1.84V6.878c0.002-0.322,0.04-0.643,0.113-0.956c0.178-0.69,0.746-1.211,1.449-1.327
	c0.674-0.172,1.367-0.292,2.049-0.433c1.946-0.383,3.882-0.764,5.828-1.137l6.015-1.188C27.433,1.5,29.2,1.145,30.983,0.8
	c0.581-0.124,1.168-0.214,1.759-0.269c0.707-0.099,1.36,0.393,1.459,1.1c0.006,0.046,0.01,0.091,0.012,0.137
	c0.021,0.191,0.031,0.382,0.032,0.574v14.75L34.249,17.1z"/>
</svg>
