<?xml version="1.0" encoding="iso-8859-1"?>
<!-- Generator: Adobe Illustrator 25.2.3, SVG Export Plug-In . SVG Version: 6.00 Build 0)  -->
<svg version="1.1" id="&#x30EC;&#x30A4;&#x30E4;&#x30FC;_1"
	 xmlns="http://www.w3.org/2000/svg" xmlns:xlink="http://www.w3.org/1999/xlink" x="0px" y="0px" viewBox="0 0 42 43"
	 style="enable-background:new 0 0 42 43;" xml:space="preserve">
<path id="&#x30B7;&#x30A7;&#x30A4;&#x30D7;_3" style="fill-rule:evenodd;clip-rule:evenodd;fill:#ECECF5;" d="M41.054,8.982
	c0.01-0.013,0.02-0.025,0.029-0.038c-1.206,0.518-2.469,0.893-3.763,1.117c-0.32,0.051-0.642,0.1-0.969,0.127
	c1.336-0.791,2.42-1.946,3.126-3.329c0.193-0.351,0.36-0.716,0.5-1.092l-0.029,0.014c0-0.012,0.011-0.022,0.016-0.035
	c-1.637,0.943-3.42,1.605-5.276,1.96c-1.591-1.639-3.779-2.56-6.063-2.553c-4.526-0.06-8.244,3.558-8.308,8.084
	c0.001,0.564,0.062,1.126,0.183,1.677c0.009,0.055,0.014,0.109,0.024,0.163c-5.801-0.27-11.304-2.646-15.477-6.684
	C4.478,7.839,3.939,7.255,3.431,6.645v0.008l-0.018-0.02C2.674,7.861,2.283,9.267,2.285,10.7c0.007,2.222,0.943,4.34,2.581,5.841
	C5.2,16.864,5.56,17.16,5.942,17.425c-1.303-0.043-2.578-0.388-3.725-1.007c0,0.034,0,0.068,0,0.1
	c0.027,3.184,1.927,6.053,4.847,7.322c0.567,0.268,1.161,0.474,1.773,0.612c-0.7,0.182-1.421,0.274-2.144,0.274
	c-0.424-0.001-0.848-0.035-1.267-0.1c-0.09-0.018-0.184-0.026-0.272-0.051v0.012H5.125c0.974,2.871,3.445,4.977,6.434,5.485
	c0.429,0.08,0.864,0.129,1.3,0.144c-2.963,2.245-6.582,3.455-10.3,3.443c-0.561,0-1.111-0.042-1.658-0.093
	c-0.1-0.016-0.209-0.021-0.31-0.041c0.014,0.008,0.028,0.016,0.042,0.025c-0.018,0-0.038,0-0.056,0
	c3.82,2.381,8.233,3.64,12.734,3.632c6.529,0.148,12.816-2.479,17.299-7.228l0.1-0.109c0.43-0.467,0.838-0.947,1.223-1.44
	c0.093-0.118,0.186-0.233,0.276-0.354c0.327-0.433,0.634-0.877,0.928-1.33c0.118-0.182,0.237-0.362,0.349-0.546
	c0.262-0.426,0.5-0.861,0.737-1.3c0.107-0.2,0.215-0.4,0.316-0.608c0.232-0.471,0.444-0.949,0.642-1.431
	c0.067-0.161,0.136-0.321,0.2-0.484c0.227-0.585,0.427-1.176,0.606-1.769c0.014-0.049,0.03-0.1,0.044-0.142
	c0.606-2.035,0.918-4.145,0.927-6.268c0-0.35-0.007-0.7-0.024-1.045c1.282-0.905,2.43-1.985,3.411-3.21
	c0.256-0.312,0.509-0.625,0.745-0.952L41.054,8.982z"/>
</svg>
