<?xml version="1.0" encoding="iso-8859-1"?>
<!-- Generator: Adobe Illustrator 25.2.3, SVG Export Plug-In . SVG Version: 6.00 Build 0)  -->
<svg version="1.1" id="&#x30EC;&#x30A4;&#x30E4;&#x30FC;_1"
	 xmlns="http://www.w3.org/2000/svg" xmlns:xlink="http://www.w3.org/1999/xlink" x="0px" y="0px" viewBox="0 0 49 43"
	 style="enable-background:new 0 0 49 43;" xml:space="preserve">
<path id="&#x30B7;&#x30A7;&#x30A4;&#x30D7;_8" style="fill-rule:evenodd;clip-rule:evenodd;fill:#ECECF5;" d="M47.179,10.5
	c-0.594-2.006-2.21-3.545-4.243-4.04c-3.743-0.954-18.751-0.954-18.751-0.954s-15.008,0-18.751,0.953
	C3.401,6.954,1.784,8.493,1.19,10.5c-1,3.563-1,11-1,11s0,7.436,1,11c0.593,2.007,2.21,3.546,4.243,4.039
	c3.743,0.956,18.751,0.956,18.751,0.956s15.009,0,18.751-0.956c2.034-0.493,3.651-2.032,4.244-4.039c1-3.564,1-11,1-11
	S48.182,14.065,47.179,10.5z M19.385,28.355V14.646L31.854,21.5L19.385,28.355z"/>
</svg>
