<?xml version="1.0" encoding="iso-8859-1"?>
<!-- Generator: Adobe Illustrator 25.2.3, SVG Export Plug-In . SVG Version: 6.00 Build 0)  -->
<svg version="1.1" id="&#x30EC;&#x30A4;&#x30E4;&#x30FC;_1"
	 xmlns="http://www.w3.org/2000/svg" xmlns:xlink="http://www.w3.org/1999/xlink" x="0px" y="0px" viewBox="0 0 43 43"
	 style="enable-background:new 0 0 43 43;" xml:space="preserve">
<path id="&#x30B7;&#x30A7;&#x30A4;&#x30D7;_6" style="fill-rule:evenodd;clip-rule:evenodd;fill:#ECECF5;" d="M21.156,0.16
	c-11.598,0-21,9.402-21,21s9.402,21,21,21s21-9.402,21-21l0,0C42.156,9.562,32.754,0.16,21.156,0.16z M30.785,30.442
	c-0.375,0.617-1.179,0.813-1.796,0.438c-0.001-0.001-0.003-0.002-0.004-0.003c-4.93-3.013-11.137-3.694-18.445-2.025
	c-0.702,0.174-1.412-0.253-1.586-0.955c-0.174-0.702,0.253-1.412,0.955-1.586c0.016-0.004,0.032-0.008,0.049-0.011
	c8-1.827,14.859-1.04,20.394,2.342c0.617,0.377,0.811,1.183,0.434,1.8C30.786,30.442,30.786,30.442,30.785,30.442L30.785,30.442z
	 M33.354,24.727c-0.474,0.77-1.481,1.011-2.252,0.538C25.46,21.8,16.855,20.792,10.18,22.818c-0.865,0.263-1.778-0.225-2.041-1.09
	s0.225-1.778,1.09-2.041c7.625-2.314,17.106-1.193,23.586,2.789c0.771,0.472,1.013,1.48,0.541,2.251c0,0,0,0.001-0.001,0.001l0,0
	L33.354,24.727z M33.575,18.772c-6.768-4.019-17.932-4.389-24.394-2.428c-1.038,0.315-2.134-0.272-2.448-1.309
	s0.272-2.134,1.309-2.448c7.417-2.251,19.746-1.818,27.537,2.807c0.933,0.553,1.241,1.759,0.688,2.692s-1.759,1.241-2.692,0.688
	V18.772z"/>
</svg>
