<?xml version="1.0" encoding="iso-8859-1"?>
<!-- Generator: Adobe Illustrator 25.2.3, SVG Export Plug-In . SVG Version: 6.00 Build 0)  -->
<svg version="1.1" xmlns="http://www.w3.org/2000/svg" xmlns:xlink="http://www.w3.org/1999/xlink" x="0px" y="0px"
	 viewBox="0 0 3133.373 290" style="enable-background:new 0 0 3133.373 290;" xml:space="preserve">
<g id="&#x30EC;&#x30A4;&#x30E4;&#x30FC;_1">
</g>
<g id="&#x30EC;&#x30A4;&#x30E4;&#x30FC;_1&#x306E;&#x30B3;&#x30D4;&#x30FC;">
	<g>
		<path style="fill:#FFFFFF;" d="M11.399,256.769c2.898-23.378,4.057-65.11,4.251-107.421c0.193-46.562-1.352-94.091-4.251-119.787
			C9.081,10.24,2.705,7.921,0,4.637h108.388c72.065,0,169.247-9.081,169.247,68.008c0,60.86-56.995,70.52-109.934,70.52
			c0,5.023,1.739,13.524,41.732,13.524c20.673,0,49.847-5.989,62.985,28.594c9.853,25.889,19.707,66.076,50.426,96.409h-145.87
			l-36.902-136.595c0.386,25.696-0.966,91.192,4.444,113.024c4.251,16.036,8.501,20.48,11.206,23.571H0
			C2.705,278.601,9.081,276.089,11.399,256.769z M169.441,72.645c0-27.049-12.558-43.858-29.174-43.858l0.193,58.541
			c0.193,11.399,0.193,22.798,0,32.265C161.712,119.594,169.441,92.738,169.441,72.645z"/>
		<path style="fill:#FFFFFF;" d="M277.11,143.165C277.11,64.144,338.549,0,445.778,0c106.649,0,168.475,64.144,168.475,143.165
			c0,79.214-61.826,143.358-168.475,143.358C338.549,286.522,277.11,222.378,277.11,143.165z M477.656,143.551
			c0-66.849-1.932-119.401-32.652-119.401c-28.208,0-31.492,52.552-31.492,119.401c0,67.235,3.284,118.82,31.492,118.82
			C475.724,262.372,477.656,210.786,477.656,143.551z"/>
		<path style="fill:#FFFFFF;" d="M619.484,256.769c5.796-49.074,5.603-178.134,0-227.208c-2.318-19.32-8.694-21.639-11.399-24.923
			h155.916c-3.284,3.284-9.467,5.603-11.979,24.923c-5.41,49.074-5.023,177.555,0.386,226.629
			c26.276,0.386,71.099-15.263,90.033-38.254v63.757H608.085C610.79,278.601,617.166,276.089,619.484,256.769z"/>
		<path style="fill:#FFFFFF;" d="M853.657,256.769c5.796-49.074,5.603-178.134,0-227.208c-2.318-19.32-8.694-21.639-11.399-24.923
			h155.916c-3.284,3.284-9.467,5.603-11.979,24.923c-5.41,49.074-5.023,177.555,0.386,226.629
			c26.276,0.386,71.099-15.263,90.034-38.254v63.757H842.258C844.963,278.601,851.338,276.089,853.657,256.769z"/>
		<path style="fill:#FFFFFF;" d="M1076.043,186.732c-0.522-36.342,26.43-62.251,45.21-71.988
			c-9.216-12.346-14.606-25.561-14.606-40.167c0-40.167,32.864-60.512,78.422-60.512c49.731,0,66.25,21.388,66.25,47.992
			c0,26.083-26.778,47.47-59.121,47.47c-32.516,0-58.773-21.388-58.773-47.47c0-12.172,5.564-19.127,9.911-21.04
			c-23.127,0-28.517,80.856,52.339,80.856c77.726,0,78.422-47.644,72.684-59.468c10.955-4.695,22.083-6.781,32.69-6.781
			c34.429,0,63.816,23.127,63.816,64.859c0,40.341-29.213,65.554-56.686,70.771c-7.999,58.946-53.383,83.812-122.762,80.682
			C1133.077,269.327,1076.739,240.462,1076.043,186.732z M1289.921,192.123c-61.207-1.043-121.545-26.43-157.365-63.989
			c-17.562,31.821,64.511,73.901,115.111,73.901C1266.968,202.034,1280.531,197.687,1289.921,192.123z"/>
		<path style="fill:#FFFFFF;" d="M1376.484,256.769c5.796-49.074,5.41-178.134,0-227.208c-2.125-19.32-8.694-21.639-11.399-24.923
			h108.388c72.065,0,169.441-6.183,169.441,46.756c0,35.356-31.686,45.983-53.324,48.688c46.755,5.41,81.339,38.255,81.339,83.851
			c0,105.683-111.093,97.761-199.387,97.761h-106.456C1367.789,278.601,1374.165,276.089,1376.484,256.769z M1543.992,183.158
			c0-45.017-2.512-66.076-38.641-66.269l-0.193,55.257c0.386,25.696-0.966,64.144,4.444,85.976
			C1540.708,253.871,1543.992,226.049,1543.992,183.158z M1534.525,60.28c0-27.049-12.558-31.492-29.174-31.492
			c0,18.741,0.58,45.21,0.193,64.144C1526.797,92.932,1534.525,80.373,1534.525,60.28z"/>
		<path style="fill:#FFFFFF;" d="M1670.65,143.165C1670.65,64.144,1732.089,0,1839.317,0c106.649,0,168.475,64.144,168.475,143.165
			c0,79.214-61.826,143.358-168.475,143.358C1732.089,286.522,1670.65,222.378,1670.65,143.165z M1871.196,143.551
			c0-66.849-1.932-119.401-32.652-119.401c-28.208,0-31.492,52.552-31.492,119.401c0,67.235,3.284,118.82,31.492,118.82
			C1869.264,262.372,1871.196,210.786,1871.196,143.551z"/>
		<path style="fill:#FFFFFF;" d="M2013.125,171.373V104.91c-0.773-30.526-1.546-57.382-3.671-74.963
			c-2.318-19.707-8.694-22.025-11.786-25.31h160.553c-3.091,3.284-9.467,5.603-11.786,25.31
			c-2.125,17.582-3.091,44.437-3.478,74.963v80.566c0,55.063,0.386,79.214,20.866,79.986c20.287-0.773,21.059-24.923,21.059-79.986
			V104.91c-0.773-30.526-2.125-57.382-4.057-74.963c-2.125-19.707-8.308-22.025-11.399-25.31h160.553
			c-3.091,3.284-9.467,5.603-11.785,25.31c-2.125,17.582-3.285,44.437-3.671,74.963v66.462c0,90.999-74.384,118.627-150.7,118.627
			C2087.122,290,2013.125,262.372,2013.125,171.373z"/>
		<path style="fill:#FFFFFF;" d="M2341.581,258.314c5.796-49.46,5.796-179.294,0-228.368c-2.319-19.707-8.694-22.025-11.786-25.31
			h130.22l119.014,106.069c0-41.925-29.56-85.01-74.384-106.069h114.377c-3.091,3.284-9.081,3.671-11.399,23.378
			c-5.796,49.46-5.796,179.294,0,228.368c2.319,19.707,8.308,22.219,11.399,25.31h-39.221L2370.948,94.091
			c0,78.055,108.774,160.36,149.541,187.601h-190.693C2332.886,278.601,2339.262,278.215,2341.581,258.314z"/>
		<path style="fill:#FFFFFF;" d="M2608.899,143.165C2608.899,64.144,2663.962,0,2760.178,0c89.84,0,131.766,35.163,131.766,81.532
			c0,38.641-33.231,57.382-73.998,57.382c-40.38,0-73.611-18.741-73.611-57.382c0-45.596,41.925-48.688,79.021-48.688
			c-13.524-3.864-27.049-5.989-39.8-5.989c-38.641,0-69.747,19.127-69.747,65.69c0,56.416,57.575,80.566,102.978,80.566
			c29.367,0,53.711-10.24,53.711-28.401c48.688,0,59.894,141.812-107.035,141.812
			C2662.03,286.522,2608.899,222.378,2608.899,143.165z"/>
		<path style="fill:#FFFFFF;" d="M2894.378,280.147c2.898-2.898,7.921-7.149,9.854-23.378c2.898-24.537,4.25-69.167,4.25-113.604
			c0-43.278-1.353-88.874-4.25-113.411c-1.932-16.036-6.183-20.866-9.66-23.378c-0.773-0.58-1.353-1.159-1.739-1.739h240.54v63.371
			c-26.083-28.981-59.121-38.448-96.602-38.448c-1.546,13.911-2.705,34.584-3.478,57.382c33.231-2.318,56.609-10.24,65.303-20.48
			v68.008c-8.694-10.433-32.458-18.741-65.69-20.673c0,50.04,0.386,112.058,3.864,142.971c26.276,0,74.963-20.48,96.602-38.447
			v63.371h-240.54L2894.378,280.147z"/>
	</g>
</g>
</svg>
