<svg xmlns="http://www.w3.org/2000/svg" width="157" height="964" viewBox="0 0 157 964">
  <defs>
    <style>
      .cls-1 {
        fill: #fff;
        fill-rule: evenodd;
      }
    </style>
  </defs>
  <path id="NOW_ON_SALE_" data-name="NOW ON SALE!" class="cls-1" d="M65.3,62.351H6.626L65.3,4.753V1.513h-63V4.3H61.7L2.306,62.621v2.61h63v-2.88Zm-64.8,58.591c0,23.489,13.049,37.168,33.3,37.168s33.3-13.679,33.3-37.168c0-23.579-13.049-37.169-33.3-37.169S0.506,97.363.506,120.942Zm2.7,0c0-20.7,11.16-34.2,30.6-34.2s30.6,13.5,30.6,34.2c0,20.609-11.16,34.109-30.6,34.109S3.206,141.551,3.206,120.942ZM65.3,262.6L6.176,240.731,65.3,217.691v-2.969L6.176,191.593,65.3,169.813v-3.149l-63,23.489v2.969l59.308,23.04L2.306,239.2v2.969l63,23.49V262.6Zm-64.8,69.842c0,23.489,13.049,37.168,33.3,37.168s33.3-13.679,33.3-37.168c0-23.579-13.049-37.169-33.3-37.169S0.506,308.863.506,332.442Zm2.7,0c0-20.7,11.16-34.2,30.6-34.2s30.6,13.5,30.6,34.2c0,20.609-11.16,34.109-30.6,34.109S3.206,353.051,3.206,332.442ZM65.3,448.9H6.626L65.3,391.3v-3.24h-63v2.79H61.7l-59.4,58.318v2.61h63V448.9ZM36.054,530.8c1.53-16.289,4.32-30.239,13.679-30.239,9.9,0,14.759,15.39,14.669,28.079-0.09,11.52-2.88,21.329-9.99,27.629l1.8,2.43c6.84-6.21,10.889-16.469,10.889-30.149,0-15.839-6.03-30.959-17.459-30.959-11.52,0-14.669,15.57-16.289,31.589-1.89,18.719-4.68,30.059-14.039,30.059-9,0-16.109-10.08-16.109-28.709,0-14.039,4.05-26.189,12.959-33.119l-1.98-2.159c-9,7.109-13.679,20.159-13.679,35.188,0,20.609,8.28,31.769,18.9,31.769C30.745,562.211,34.255,549.431,36.054,530.8ZM2.306,639.881v3.24l63-35.639v-3.24l-63-35.638v3.239l19.709,11.07v45.808Zm22.409-55.438,37.8,21.329-37.8,21.419V584.443ZM5.006,660.133H65.3v-2.88h-63V710.8h2.7V660.133Zm0,67.86H32.995v47.068h2.7V727.993H62.6v54.448h2.7V725.113h-63v58.228h2.7V727.993Zm60.3,79.29-47.788.36v2.52l47.788,0.36v-3.24Zm-63.627,1.8a2.6,2.6,0,0,0,2.7,2.7,2.745,2.745,0,0,0,0-5.49A2.623,2.623,0,0,0,1.676,809.083Z"/>
  <path id="BLU-RAY_DVD" data-name="BLU-RAY &amp; DVD" class="cls-1" d="M121.267,64.942c0.624,10.92,7.8,16.641,16.017,16.641,11.648,0,18.825-11.336,18.825-29.225V0.252h-72.8V56.518c0,17.889,7.384,29.225,19.969,29.225C114.507,85.743,120.539,76.383,121.267,64.942ZM141.34,21.261V48.822c0,7.072-1.56,11.752-7.072,11.752-5.617,0-7.177-4.68-7.177-11.752V21.261H141.34ZM98.074,52.046V21.261h15.289V52.046c0,7.488-1.664,11.96-7.592,11.96S98.074,59.534,98.074,52.046Zm2.288,67.391h55.747V98.22h-72.8v70.2h17.056V119.437Zm55.747,119.289H119.291c-12.688,0-20.9-6.968-20.9-21.008s8.217-21.113,20.9-21.113h36.818V175.388H117.627c-22.153,0-36.713,15.185-36.713,42.33s14.56,42.225,36.713,42.225h38.482V238.726Zm-41.9,66.34h2.464V269.427h-2.464v35.639Zm-30.9,101.557L108.059,385.2c3.328,11.441,11.024,19.137,23.193,19.137,16.64,0,24.857-14.456,24.857-33.073V320.2h-72.8v21.113h22.985v21.425l-22.985,19.24v24.649Zm38.377-65.418h18.3v28.5c0,7.592-2.08,13.1-9.152,13.1s-9.153-5.512-9.153-13.1v-28.5ZM83.306,484.935V507.5l72.8-37.649V446.661l-72.8-37.649v22.257l13.936,6.864V478.07Zm29.017-39.522L138.116,458.1l-25.793,12.584V445.413Zm43.786,48.671L107.851,528.3H83.306v21.217h24.545l48.258,34.217V560.126L124.7,539.013l31.41-21.216V494.084ZM83.306,663.61l8.976-13.024c5.1,4.048,11.792,6.16,19.536,6.16V653.93c-7.3,0-13.376-1.848-17.951-5.544l21.12-30.535c4.84-6.864,8.888-13.2,16.1-13.2,7.656,0,12.936,6.952,12.936,18.3,0,12.055-5.72,18.743-14.08,22.351l1.144,2.376c8.712-3.52,15.576-11.176,15.576-24.727,0-12.848-6.424-21.3-15.664-21.3-5.455,0-9.239,2.992-12.583,6.952-2.64-8.888-8.36-14.607-17.072-14.607-11.263,0-19.8,11.439-19.8,28.863,0,11.7,3.168,20.327,8.8,25.959l-7.04,10.12v4.664Zm0.88-40.655c0-15.576,7.128-26.048,17.247-26.048,7.128,0,12.584,4.312,15.224,13.992-1.232,1.584-2.464,3.432-3.7,5.192L91.93,646.538C86.914,641.434,84.186,633.514,84.186,622.955Zm71.923,107.363V689.652h-72.8v40.666c0,27.977,13.52,45.761,36.4,45.761S156.109,758.3,156.109,730.318Zm-55.955-1.664V710.869H139.26v17.785c0,15.6-6.656,25.792-19.553,25.792S100.154,744.254,100.154,728.654Zm55.955,47.318-72.8,35.569V833.8l72.8,35.673V846.8l-52.418-23.921,52.418-24.024V775.972Zm0,142.17V877.476h-72.8v40.666c0,27.977,13.52,45.761,36.4,45.761S156.109,946.119,156.109,918.142Zm-55.955-1.664V898.693H139.26v17.785c0,15.6-6.656,25.793-19.553,25.793S100.154,932.078,100.154,916.478Z"/>
</svg>
