<?xml version="1.0" encoding="iso-8859-1"?>
<!-- Generator: Adobe Illustrator 25.2.3, SVG Export Plug-In . SVG Version: 6.00 Build 0)  -->
<svg version="1.1" id="&#x30EC;&#x30A4;&#x30E4;&#x30FC;_1"
	 xmlns="http://www.w3.org/2000/svg" xmlns:xlink="http://www.w3.org/1999/xlink" x="0px" y="0px" viewBox="0 0 1471 621"
	 style="enable-background:new 0 0 1471 621;" xml:space="preserve">
<path id="SIRUP" style="fill-rule:evenodd;clip-rule:evenodd;fill:#FFFFFF;" d="M561.89,280.209
	c-22.255-2.09-41.312-5.9-41.312-18.689c0-13.524,21.025-20.164,38.361-20.041c15.738,0.123,29.139,3.935,37.746,13.648l3.32-2.459
	c-8.484-9.344-22.5-14.877-41.189-14.877c-21.64,0-42.3,8.238-42.3,23.852c0,15.738,21.271,20.042,43.156,22.255
	c25.574,2.582,41.066,6.393,41.066,19.18c0,12.3-13.77,22.009-39.221,22.009c-19.181,0-35.779-5.533-45.246-17.706l-2.951,2.705
	c9.713,12.3,27.541,18.689,48.074,18.689c28.156,0,43.4-11.311,43.4-25.82C604.8,287.463,587.341,282.668,561.89,280.209z
	 M631.91,326.316V240.25h-3.934v86.066H631.91z M753.61,326.316l-31.353-35.533c17.582-0.861,28.648-10.328,28.648-25.328
	c0-15.615-12.3-25.2-31.476-25.2H663.98v86.066h3.934v-35.41h49.3l31.23,35.41h5.164L753.61,326.316z M667.91,287.216v-43.278
	h51.394c17.09,0,27.541,7.992,27.541,21.517c0,13.771-10.451,21.762-27.541,21.762h-51.39L667.91,287.216z M858.055,240.25v45.369
	c0,23.853-14.632,39.468-39.468,39.468c-24.959,0-39.59-15.615-39.59-39.468V240.25h-3.935v45.492c0,24.59,15,43.033,43.525,43.033
	s43.4-18.443,43.4-43.033V240.25h-3.934H858.055z M947.742,240.25h-55.451v86.066h3.934v-33.935h51.517
	c19.3,0,31.353-10.082,31.353-26.188C979.1,250.332,967.046,240.25,947.742,240.25z M947.5,288.693h-51.275v-44.755H947.5
	c17.214,0,27.541,8.484,27.541,22.255C975.037,280.209,964.71,288.693,947.5,288.693z"/>
</svg>
