<?xml version="1.0" encoding="iso-8859-1"?>
<!-- Generator: Adobe Illustrator 25.2.3, SVG Export Plug-In . SVG Version: 6.00 Build 0)  -->
<svg version="1.1" id="&#x30EC;&#x30A4;&#x30E4;&#x30FC;_1"
	 xmlns="http://www.w3.org/2000/svg" xmlns:xlink="http://www.w3.org/1999/xlink" x="0px" y="0px" viewBox="0 0 84 385"
	 style="enable-background:new 0 0 84 385;" xml:space="preserve">
<path id="NEXT" style="fill-rule:evenodd;clip-rule:evenodd;fill:#FFFFFF;" d="M83.695,81.577H5.991L83.695,5.3V1.013H0.27v3.694
	h78.658L0.27,81.935v3.456h83.425V81.577z M3.845,120.3H40.91v62.33h3.575V120.3h35.634v72.1h3.575v-75.919H0.27v77.109h3.575V120.3
	z M83.695,291.2v-5L44.6,248.176l39.091-38.137v-5.125l-41.712,40.64L0.27,204.914v5.006l39.091,38.017L0.27,286.074v5.244
	l41.83-40.64L83.695,291.2z M83.695,384.528v-86.763h-3.576v41.474H0.27v3.814h79.849v41.474h3.575L83.695,384.528z"/>
</svg>
