<?xml version="1.0" encoding="iso-8859-1"?>
<!-- Generator: Adobe Illustrator 25.2.3, SVG Export Plug-In . SVG Version: 6.00 Build 0)  -->
<svg version="1.1" id="&#x30EC;&#x30A4;&#x30E4;&#x30FC;_1"
	 xmlns="http://www.w3.org/2000/svg" xmlns:xlink="http://www.w3.org/1999/xlink" x="0px" y="0px" viewBox="0 0 1471 621"
	 style="enable-background:new 0 0 1471 621;" xml:space="preserve">
<path id="DEBUT" style="fill-rule:evenodd;clip-rule:evenodd;fill:#FFFFFF;" d="M0.4,612.939h151.24
	c112.824,0,162.676-56.787,162.676-132.878c0-95.769-75.9-135.875-165.3-135.875H0.4c2.624,3.186,8.809,5.435,11.057,24.176
	c5.435,47.6,5.623,172.8,0,220.4C9.2,607.5,3.02,609.94,0.4,612.939z M140.586,588.762c-5.247-47.6-5.435-172.984-0.187-220.587
	C162.323,371.361,182,385.6,182,478.937c0,93.145-19.677,106.826-41.418,109.825H140.586z M323.838,612.939h233.327v-61.473
	c-20.99,17.43-68.219,37.3-93.707,37.3c-3.374-29.986-3.749-90.147-3.749-138.687c32.236,1.874,55.288,9.933,63.722,20.053v-65.97
	c-8.434,9.933-31.111,17.617-63.347,19.866c0.75-22.115,1.874-42.168,3.374-55.662c36.358,0,68.406,9.183,93.707,37.3v-61.48
	H323.834c0.464,0.652,1.034,1.222,1.686,1.686c3.374,2.437,7.5,7.122,9.371,22.678c2.811,23.8,4.123,68.031,4.123,110.012
	c0,43.106-1.312,86.4-4.123,110.2c-1.874,15.743-6.747,19.866-9.558,22.677L323.838,612.939z M570.588,612.939h103.261
	c85.649,0,193.413,7.684,193.413-94.832c0-44.23-33.548-76.091-78.9-81.338c20.99-2.624,51.726-12.932,51.726-47.229
	c0-51.352-94.457-45.354-164.362-45.354H570.584c2.624,3.186,9,5.435,11.057,24.176c5.248,47.6,5.623,172.8,0,220.4
	c-2.249,18.738-8.433,21.178-11.057,24.177H570.588z M706.838,429.839c0.375-18.366-0.187-44.042-0.187-62.222
	c16.118,0,28.3,4.311,28.3,30.549c-0.004,19.486-7.501,31.668-28.117,31.668L706.838,429.839z M710.774,590.079
	c-5.248-21.178-3.936-58.473-4.31-83.4l0.187-53.6c35.047,0.187,37.483,20.615,37.483,64.283
	c-0.004,41.601-3.19,68.589-33.364,72.712L710.774,590.079z M1037.95,621c74.03,0,146.18-26.8,146.18-115.072v-64.474
	c0.38-29.612,1.5-55.662,3.56-72.717c2.25-19.116,8.44-21.365,11.43-24.551h-155.74c3,3.186,9,5.435,11.06,24.551
	c1.87,17.055,3.19,43.1,3.94,72.717v78.152c0,53.413-0.75,76.84-20.43,77.59c-19.87-0.75-20.24-24.177-20.24-77.59v-78.152
	c0.37-29.612,1.31-55.662,3.37-72.717c2.25-19.116,8.43-21.365,11.43-24.551H876.771c3,3.186,9.184,5.435,11.433,24.551
	c2.061,17.055,2.811,43.1,3.56,72.717v64.471C891.764,594.2,963.544,621,1037.95,621z M1263,612.939h151.24
	c-3-3-9.18-5.435-11.62-24.177c-5.25-47.6-5.06-173.359,0.19-220.962c25.49-0.375,48.91,15.368,67.28,37.67v-61.847h-263.32v61.847
	c18.37-22.3,41.79-38.045,67.28-37.67c5.44,47.6,5.63,173.359,0,220.962C1271.8,607.5,1265.62,609.94,1263,612.939z"/>
</svg>
