<?xml version="1.0" encoding="iso-8859-1"?>
<!-- Generator: Adobe Illustrator 25.2.3, SVG Export Plug-In . SVG Version: 6.00 Build 0)  -->
<svg version="1.1" id="&#x30EC;&#x30A4;&#x30E4;&#x30FC;_1"
	 xmlns="http://www.w3.org/2000/svg" xmlns:xlink="http://www.w3.org/1999/xlink" x="0px" y="0px" viewBox="0 0 1471 621"
	 style="enable-background:new 0 0 1471 621;" xml:space="preserve">
<path id="_2017.9.27" style="fill-rule:evenodd;clip-rule:evenodd;fill:#FFFFFF;" d="M217.661,136.734h127.091v-38.99
	c-24.463,22.026-69.169,24.088-80.323,24.088c55.392-9.935,84.353-40.489,84.353-68.138c0-38.9-27.649-53.329-69.357-53.611
	c-53.985-0.375-62.983,22.869-62.983,39.646c0,15.09,12.278,29.9,32.991,29.9c21.651,0,29.336-16.308,29.336-27.555
	c0-13.215-11.528-26.149-28.773-26.149c2.155-1.687,5.53-2.624,9.466-2.624c12,0,28.586,9,27.743,34.21
	c-1.5,45.644-54.267,74.792-69.544,74.792v14.434L217.661,136.734z M425.861,139.077c46.488,0,73.387-31.117,73.387-69.544
	c0-38.333-26.9-69.45-73.387-69.45c-46.581,0-73.293,31.117-73.293,69.45c-0.001,38.427,26.711,69.544,73.292,69.544H425.861z
	 M425.486,127.077c-12.278,0-11.34-24.743-11.34-57.359c0-32.429-0.938-57.734,11.34-57.734c13.5,0,11.9,25.306,11.9,57.735
	c0.002,32.618,1.596,57.361-11.901,57.361L425.486,127.077z M503.974,136.731h77.136c-9.373-11.716-7.123-52.58-7.123-67.013V0.083
	c-19.589,3.655-40.864,9-70.95,9c7.029,5.155,9.185,34.584,9.185,60.64c-0.001,14.994,0.749,55.295-8.249,67.011L503.974,136.731z
	 M598.19,136.731h77.04C662.3,68.409,683.385,33.918,714.314,2.333H584.88V73.47c23.056-34.678,62.795-59.046,104.128-59.046
	c-42.926,26.336-90.819,63.919-90.819,122.31L598.19,136.731z M735.171,139.074c19.963,0,36.272-13.122,36.272-28.68
	c0-15.933-16.309-28.773-36.272-28.773S698.9,94.464,698.9,110.4c0,15.555,16.307,28.677,36.27,28.677L735.171,139.074z
	 M832.759,139.074c49.768,1.125,87.726-23.806,87.726-77.417c0-40.958-38.333-61.577-71.605-61.577
	c-39.083,0-73.668,14.809-73.668,54.735c0,39.646,34.959,52.018,74.043,52.018c-4.4,9-12.841,17.432-30.648,17.432
	c-8.436,0-13.5-2.718-21.744-6.935l-6.094,10.97c12.994,6.739,27.355,10.425,41.989,10.777L832.759,139.074z M846.818,95.305
	c-7.873-0.187-8.061-21.557-7.873-40.489c0-17.339,0.562-42.832,7.5-43.02c7.123,0.187,7.685,25.681,7.685,43.02
	c0.185,18.935,0.747,40.304-7.313,40.492L846.818,95.305z M960.546,139.074c19.963,0,36.272-13.122,36.272-28.68
	c0-15.933-16.309-28.773-36.272-28.773s-36.271,12.84-36.271,28.773c-0.001,15.561,16.307,28.683,36.27,28.683L960.546,139.074z
	 M1001.801,136.731h127.1V97.744c-24.47,22.026-69.17,24.088-80.33,24.088c55.39-9.935,84.36-40.489,84.36-68.138
	c0-38.9-27.65-53.329-69.36-53.611c-53.99-0.375-62.98,22.869-62.98,39.646c0,15.09,12.27,29.9,32.99,29.9
	c21.65,0,29.33-16.308,29.33-27.555c0-13.215-11.53-26.149-28.77-26.149c2.16-1.687,5.53-2.624,9.47-2.624
	c11.99,0,28.58,9,27.74,34.21c-1.5,45.644-54.27,74.792-69.55,74.792v14.434L1001.801,136.731z M1150.021,136.731h77.04
	c-12.93-68.325,8.16-102.816,39.09-134.4H1136.71V73.47c23.06-34.678,62.8-59.046,104.13-59.046
	c-42.93,26.336-90.82,63.919-90.82,122.31L1150.021,136.731z"/>
</svg>
